<svg width="310" height="155" viewBox="0 0 310 155" fill="none" xmlns="http://www.w3.org/2000/svg">
<path d="M10.0185 29.6407C9.84582 23.5628 14.0038 18.4752 19.3057 18.2772L297.284 7.89571C302.586 7.6977 307.024 12.4643 307.197 18.5422L309.995 116.988C310.168 123.065 306.01 128.153 300.708 128.351L22.7289 138.732C17.427 138.93 12.9889 134.164 12.8162 128.086L10.0185 29.6407Z" fill="#F14B64"/>
<path fill-rule="evenodd" clip-rule="evenodd" d="M27.911 134.554C26.2598 135.161 23.8843 136.454 22.6319 137.426C19.8567 139.582 9.8024 142.77 5.7719 142.771C4.15437 142.772 2.07408 142.957 1.14969 143.183C-0.454401 143.576 -0.43558 143.625 1.55844 144.238C2.70765 144.592 5.3909 144.793 7.52112 144.684C9.65134 144.575 11.6137 144.949 11.8821 145.517C12.7148 147.277 16.9749 146.272 20.1594 143.565C21.8317 142.143 24.4203 140.84 25.9116 140.67C27.8096 140.453 29.0557 139.564 30.0652 137.709C31.2905 135.456 31.9352 135.128 34.3462 135.524C35.9078 135.781 37.7148 136.64 38.3623 137.435C39.8845 139.3 46.7357 136.507 53.968 137.689C65.7272 141.807 70.8676 142.484 82.4547 141.444C91.4674 140.637 93.4331 140.176 93.9985 138.744C94.6139 137.185 95.2725 137.126 100.788 138.14C104.148 138.757 107.98 139.394 109.305 139.555C112.273 139.917 116.91 141.468 115.759 141.715C114.06 142.078 115.103 143.718 117.656 144.698C119.1 145.252 121.452 147.203 122.883 149.033C126.324 153.434 129.378 154.957 132.904 154.032C136.583 153.065 141.535 149.591 142.113 147.569C142.359 146.71 143.571 145.924 144.808 145.82C146.087 145.713 148.062 144.39 149.388 142.755C152.056 139.464 155.12 138.86 158.205 141.014C159.376 141.833 161.406 142.336 162.715 142.134C166.484 141.552 166.545 141.6 168.095 146.547C168.905 149.132 169.99 151.212 170.507 151.169C171.023 151.125 171.834 152.022 172.309 153.162C173.008 154.84 173.867 155.175 176.827 154.927C181.321 154.55 182.586 153.712 182.427 151.217C182.238 148.267 187.734 139.905 189.187 140.931C190.735 142.026 200.067 145.225 205.527 146.533C208.601 147.27 211.045 147.194 213.875 146.275C216.075 145.56 220.555 144.354 223.832 143.596C227.107 142.838 229.973 141.635 230.2 140.925C230.648 139.52 238.368 139.757 238.459 141.178C238.486 141.601 240.278 142.085 242.442 142.252C244.607 142.419 246.516 143.05 246.685 143.655C246.855 144.258 247.733 144.69 248.635 144.615C249.703 144.525 250.316 145.088 250.388 146.224C250.485 147.741 251.096 147.825 255.038 146.862C262.624 145.008 264.594 144.141 264.502 142.696C264.454 141.938 265.387 140.909 266.575 140.409C267.764 139.91 269.311 138.841 270.015 138.035C270.718 137.229 272.936 135.873 274.944 135.023C276.951 134.172 280.812 132.128 283.524 130.481C286.235 128.833 288.678 129.274 291.437 128.365C297.334 126.422 305.009 124.713 305.844 123.36C306.84 121.746 306.105 112.092 304.098 113.35C298.607 116.793 298.341 121.606 285.074 126.006C265.8 132.399 267.037 126.281 242.538 129.366C226.858 131.34 219.285 128.655 218.089 129.856C214.146 133.815 199.576 128.817 191.894 131.773C188.972 129.671 186.013 121.898 182.57 126.899C179.143 131.879 178.319 129.729 173.994 130.867C170.384 131.815 171.222 133.348 170.22 130.606C167.256 122.5 166.955 132.688 163.551 131.949C161.027 131.402 159.824 132.354 159.481 133.429C159.138 134.505 157.168 132.577 156.049 131.773C153.531 129.965 150.058 130.544 148.228 133.165C147.333 134.447 145.672 127.81 143.731 128.484C141.79 129.159 140.041 128.993 138.296 129.856C134.872 131.55 135.725 134.748 132.606 132.797C129.862 131.082 127.005 135.689 130.653 134.597C138 132.396 132.788 123.589 132.461 122.417C132.273 121.741 130.294 129.612 128.066 129.616C125.877 129.62 123.413 128.77 122.589 127.987C121.576 127.027 121.902 134.876 118.141 135.192C114.093 135.531 112.261 135.245 111.447 134.145C110.716 133.158 108.996 132.742 106.503 132.952C104.401 133.128 101.294 132.851 99.5996 132.336C97.9054 131.821 96.0009 131.798 95.3676 132.284C93.2854 133.882 90.2276 134.062 86.8868 132.781C83.2948 131.404 78.6783 131.94 78.4192 133.763C78.3291 134.395 79.3035 135.593 80.5844 136.427C82.8847 137.923 80.1088 134.249 74.0144 134.597C69.1066 134.877 69.8303 137.296 68.7753 135.872C67.8599 134.635 66.9412 135.174 64.7638 135.421C61.272 135.817 55.5074 135.096 47.106 133.211C41.1687 131.879 33.5498 132.483 27.911 134.554Z" fill="#F14B64"/>
<path fill-rule="evenodd" clip-rule="evenodd" d="M47.5928 20.5208C46.2945 19.9733 44.4304 18.7932 43.4505 17.8991C41.2789 15.9163 33.3682 13.0587 30.1851 13.1068C28.9076 13.1261 27.2665 12.9784 26.5385 12.7778C25.2754 12.43 25.2907 12.3841 26.8712 11.786C27.7821 11.4409 29.9031 11.2204 31.5844 11.2962C33.2658 11.372 34.8191 10.9975 35.0363 10.4637C35.7104 8.80697 39.0654 9.69463 41.5551 12.1878C42.8625 13.4969 44.8947 14.6841 46.0709 14.8249C47.5679 15.0047 48.5437 15.8202 49.3236 17.5437C50.2702 19.6354 50.7763 19.9348 52.6841 19.5348C53.9198 19.2751 55.3549 18.4491 55.8737 17.6977C57.0933 15.9342 59.2435 16.0323 66.13 18.1657C71.6171 19.8665 71.8656 19.8552 76.9351 17.684C86.2605 13.6879 90.3265 12.9912 99.4677 13.8213C106.578 14.466 108.126 14.8728 108.559 16.2059C109.031 17.6566 109.55 17.7032 113.916 16.6874C116.575 16.0684 119.608 15.4255 120.655 15.2585C123.003 14.8843 126.679 13.3761 125.772 13.1595C124.434 12.8405 125.273 11.294 127.299 10.3458C128.444 9.80964 130.32 7.95565 131.467 6.22625C134.226 2.06767 136.652 0.606107 139.428 1.42811C142.324 2.28737 146.203 5.47615 146.641 7.35961C146.827 8.16007 147.777 8.88111 148.752 8.96297C149.761 9.04761 151.309 10.2604 152.341 11.7732C154.418 14.8188 156.831 15.3465 159.288 13.2934C160.221 12.5135 161.828 12.018 162.86 12.1909C165.832 12.6891 165.88 12.6429 167.15 7.99721C167.814 5.56886 168.691 3.60998 169.099 3.64419C169.506 3.67836 170.154 2.82946 170.54 1.75779C171.108 0.179493 171.79 -0.14471 174.125 0.0512341C177.67 0.348634 178.662 1.11729 178.513 3.45234C178.336 6.21467 182.599 13.9682 183.755 12.9903C184.988 11.9476 192.389 8.84078 196.712 7.55046C199.147 6.82335 201.077 6.86375 203.303 7.68882C205.034 8.33088 208.561 9.40358 211.141 10.0727C213.721 10.7418 215.973 11.831 216.146 12.4928C216.486 13.8011 222.585 13.4847 222.67 12.1549C222.696 11.7586 224.116 11.2836 225.827 11.1009C227.537 10.9182 229.051 10.3045 229.191 9.7371C229.33 9.17071 230.027 8.75546 230.74 8.8152C231.582 8.88587 232.071 8.35182 232.139 7.28861C232.23 5.86801 232.713 5.7821 235.817 6.63466C241.791 8.27493 243.339 9.0622 243.253 10.4149C243.207 11.1247 243.935 12.076 244.868 12.5287C245.803 12.9804 247.015 13.9613 247.563 14.7068C248.111 15.4523 249.85 16.6932 251.427 17.4639C253.005 18.2355 256.035 20.0996 258.161 21.6068C260.287 23.115 263.802 25.0157 265.972 25.8321C270.611 27.5772 284.265 35.3277 284.913 36.5834C285.684 38.0804 284.825 38.4499 283.251 37.2982C278.947 34.1449 269.78 29.7266 259.343 25.7738C244.181 20.0306 244.606 20.1335 225.287 17.5493C212.922 15.8948 208.41 14.9572 207.477 13.8492C204.399 10.1946 190.634 11.543 185.442 16.0073C183.114 18.009 182.459 17.663 179.787 13.0277C177.127 8.41157 176.282 7.62911 172.876 6.6178C170.035 5.7752 169.891 5.84241 169.073 8.41949C166.657 16.0383 166.701 15.9657 164.006 16.6982C162.008 17.2411 161.293 17.0958 161.032 16.0943C160.771 15.0929 160.405 15.018 159.513 15.7843C157.508 17.5059 153.211 16.6175 151.79 14.1889C151.094 13.0005 149.277 11.5312 147.75 10.9243C146.224 10.3176 143.854 9.17834 142.484 8.39292C139.796 6.85065 136.339 7.06553 133.858 8.92793C131.675 10.5664 131.851 11.2376 134.721 12.2151C140.503 14.1835 141.219 14.5818 140.95 15.6823C140.794 16.3166 139.289 16.8347 137.529 16.8587C135.8 16.8813 133.846 17.5082 133.188 18.2509C132.38 19.1616 130.56 19.4808 127.593 19.2318C124.399 18.9639 122.949 19.2538 122.296 20.293C121.71 21.2254 120.347 21.635 118.381 21.47C116.722 21.3309 114.266 21.6277 112.923 22.1302C111.58 22.6328 110.076 22.6783 109.58 22.2312C107.951 20.7616 105.537 20.6315 102.887 21.8705C100.037 23.2021 96.3965 22.7582 96.2089 21.0563C96.1437 20.4657 96.9244 19.3328 97.9438 18.5371C99.7744 17.1099 99.737 17.0887 94.9271 16.8388C91.0538 16.6363 89.8384 16.9318 88.9919 18.2769C88.2574 19.4448 87.1572 19.8774 85.4399 19.6731C82.686 19.3448 78.1266 20.0904 71.4739 21.9572C66.7724 23.276 52.0268 22.3893 47.5928 20.5208Z" fill="#F14B64"/>
<path d="M76.1331 53.9834C78.4644 54.6235 80.3798 56.6709 80.4347 59.8705C80.511 64.3098 78.129 67.7112 69.6902 67.8561L46.1737 68.2598L45.8942 51.9822L69.5708 51.5757C70.7706 51.5551 71.8829 51.096 71.8595 49.7362C71.8369 48.4164 70.6702 48.0363 69.5103 48.0562L45.8338 48.4627L51.3135 41.4076L69.0309 41.1034C75.43 40.9936 79.5919 43.4025 79.6764 48.3218C79.7306 51.4813 77.9611 53.2719 76.1331 53.9834ZM69.549 57.2969L54.3112 57.5585L54.3744 61.238L69.6121 60.9764C71.4119 60.9455 72.1608 60.2925 72.1395 59.0527C72.1196 57.8929 71.3487 57.266 69.549 57.2969ZM92.1235 60.5899L114.88 60.1992L109.679 67.1695L83.9228 67.6117L83.4635 40.8557L114.459 40.3235L109.219 47.3745L91.9017 47.6718L91.9567 50.8713L113.154 50.5074L108.499 56.6682L92.061 56.9505L92.1235 60.5899ZM132.184 59.9022L150.941 59.5801L145.74 66.5504L132.302 66.7811C123.023 66.9404 116.083 61.1787 115.95 53.4199C115.816 45.581 122.564 40.1844 131.843 40.0251L150.6 39.7031L145.4 46.7534L131.962 46.9841C127.483 47.061 124.169 49.7982 124.235 53.6377C124.3 57.4371 127.665 59.9797 132.184 59.9022ZM171.383 38.9062C184.381 38.683 191.013 42.8098 191.177 52.3684C191.341 61.927 184.856 66.319 171.858 66.5421C158.82 66.7659 152.227 62.5985 152.063 53.0399C151.899 43.4813 158.345 39.13 171.383 38.9062ZM171.738 59.5831C180.057 59.4403 183.037 58.269 182.938 52.5098C182.84 46.7507 179.822 45.7223 171.503 45.8652C163.184 46.008 160.203 47.1393 160.302 52.8985C160.401 58.6576 163.419 59.7259 171.738 59.5831ZM207.396 41.1283L211.805 48.6137C214.235 52.6926 215.309 54.6745 216.262 56.5384C217.109 54.6436 218.115 52.666 220.404 48.5061L224.553 40.8338C225.484 39.0975 226.904 37.953 229.064 37.9159C231.144 37.8802 233.004 39.0484 233.766 41.5157L240.929 64.9162L232.69 65.0577L230.011 55.7823C229.119 52.7572 228.522 50.6071 228.045 48.455C227.197 50.3498 226.232 52.4067 224.452 55.9177L220.968 62.6985C219.614 65.3622 218.26 65.7455 216.26 65.7798C214.261 65.8141 212.895 65.4775 211.449 62.8619L207.734 56.1647C205.711 52.5189 204.719 50.6557 203.848 48.8704C203.485 50.9969 202.923 53.2469 202.175 56.2602L199.815 65.6221L191.696 65.7615L198.212 42.1261C198.889 39.6341 200.748 38.402 202.828 38.3663C204.947 38.3299 206.406 39.3851 207.396 41.1283ZM251.361 57.8561L274.118 57.4654L268.917 64.4357L243.16 64.8779L242.701 38.1219L273.696 37.5897L268.457 44.6407L251.139 44.938L251.194 48.1375L272.391 47.7736L267.736 53.9344L251.298 54.2166L251.361 57.8561ZM69.3547 111.868L38.2393 112.403L43.1205 105.438L49.8395 105.322C51.4393 105.295 53.319 105.263 54.6002 105.321C53.8638 104.373 52.7158 102.753 51.814 101.488L46.8931 94.4913L34.6399 112.464L24.8413 112.633L41.5834 88.1415C42.6764 86.5625 44.2915 85.0946 46.8911 85.05C49.3707 85.0074 51.0331 86.299 52.2218 87.9589L69.3547 111.868ZM83.4764 84.8619L93.6349 84.6875L105.978 102.238L118.231 84.2652L127.99 84.0977L111.288 108.588C110.155 110.168 108.54 111.636 105.98 111.68C103.5 111.722 101.838 110.431 100.649 108.771L83.4764 84.8619ZM138.539 83.9166L138.998 110.673L130.719 110.815L130.26 84.0587L138.539 83.9166ZM151.513 103.577L172.23 103.221L166.989 110.192L143.352 110.598L142.893 83.8419L151.172 83.6997L151.513 103.577ZM182.466 103.045L203.183 102.69L197.942 109.661L174.306 110.067L173.846 83.3104L182.125 83.1683L182.466 103.045ZM246.365 108.829L215.249 109.364L220.13 102.399L226.849 102.283C228.449 102.256 230.329 102.224 231.61 102.282C230.874 101.334 229.726 99.7137 228.824 98.449L223.903 91.4524L211.65 109.425L201.851 109.594L218.593 85.1026C219.686 83.5236 221.301 82.0557 223.901 82.011C226.381 81.9685 228.043 83.2601 229.232 84.92L246.365 108.829ZM256.454 81.8922L256.914 108.648L248.635 108.79L248.176 82.0343L256.454 81.8922ZM288.391 108.548C287.351 108.566 286.347 108.343 285.047 107.165L268.397 92.7288L268.667 108.446L261.148 108.576L260.767 86.3789C260.706 82.8194 262.841 81.3425 265.2 81.302C266.2 81.2848 267.204 81.5076 268.544 82.6848L285.195 97.1211L284.925 81.4034L292.484 81.2737L292.864 103.43C292.925 106.99 290.791 108.507 288.391 108.548Z" fill="black"/>
</svg>
