<svg width="71" height="60" viewBox="0 0 71 60" fill="none" xmlns="http://www.w3.org/2000/svg">
<g filter="url(#filter0_d_70_826)">
<path fill-rule="evenodd" clip-rule="evenodd" d="M23.4388 28.9999L36.22 16.2186L29.8804 16.118L16.9999 28.9985L17.0866 28.9999L16.9999 29.0013L29.8804 41.8818L36.22 41.7811L23.4388 28.9999Z" fill="white"/>
</g>
<path opacity="0.6" d="M34 29.3762L39.25 26.3451C39.9167 25.9602 40.75 26.4413 40.75 27.2111L40.75 31.5413C40.75 32.3111 39.9167 32.7922 39.25 32.4073L34 29.3762Z" fill="white"/>
<path opacity="0.4" d="M49 29.3762L54.25 26.3451C54.9167 25.9602 55.75 26.4413 55.75 27.2111L55.75 31.5413C55.75 32.3111 54.9167 32.7922 54.25 32.4073L49 29.3762Z" fill="white"/>
<path opacity="0.2" d="M64 29.3762L69.25 26.3451C69.9167 25.9602 70.75 26.4413 70.75 27.2111L70.75 31.5413C70.75 32.3111 69.9167 32.7922 69.25 32.4073L64 29.3762Z" fill="white"/>
<defs>
<filter id="filter0_d_70_826" x="0" y="0.118042" width="53.2202" height="59.7637" filterUnits="userSpaceOnUse" color-interpolation-filters="sRGB">
<feFlood flood-opacity="0" result="BackgroundImageFix"/>
<feColorMatrix in="SourceAlpha" type="matrix" values="0 0 0 0 0 0 0 0 0 0 0 0 0 0 0 0 0 0 127 0" result="hardAlpha"/>
<feOffset dy="1"/>
<feGaussianBlur stdDeviation="8.5"/>
<feComposite in2="hardAlpha" operator="out"/>
<feColorMatrix type="matrix" values="0 0 0 0 1 0 0 0 0 1 0 0 0 0 1 0 0 0 0.7 0"/>
<feBlend mode="normal" in2="BackgroundImageFix" result="effect1_dropShadow_70_826"/>
<feBlend mode="normal" in="SourceGraphic" in2="effect1_dropShadow_70_826" result="shape"/>
</filter>
</defs>
</svg>
