<svg width="400" height="549" viewBox="0 0 400 549" fill="none" xmlns="http://www.w3.org/2000/svg">
<path d="M11 533.538V49.7519L199.098 144.831L200 145.287L200.902 144.831L389 49.7519V533.538C389 540.717 383.18 546.538 376 546.538H264.475L202.106 523.154C200.748 522.645 199.252 522.645 197.894 523.154L135.525 546.538H24C16.8203 546.538 11 540.717 11 533.538Z" fill="#080017"/>
<path d="M11 533.538V49.7519L199.098 144.831L200 145.287L200.902 144.831L389 49.7519V533.538C389 540.717 383.18 546.538 376 546.538H264.475L202.106 523.154C200.748 522.645 199.252 522.645 197.894 523.154L135.525 546.538H24C16.8203 546.538 11 540.717 11 533.538Z" stroke="url(#paint0_linear_70_789)" stroke-width="4"/>
<path d="M11 533.538V49.7519L199.098 144.831L200 145.287L200.902 144.831L389 49.7519V533.538C389 540.717 383.18 546.538 376 546.538H264.475L202.106 523.154C200.748 522.645 199.252 522.645 197.894 523.154L135.525 546.538H24C16.8203 546.538 11 540.717 11 533.538Z" stroke="url(#paint1_linear_70_789)" stroke-width="4"/>
<path d="M334.5 546.538H264.112L201.404 523.027C200.499 522.687 199.501 522.687 198.596 523.027L135.888 546.538H54" stroke="url(#paint2_linear_70_789)" stroke-width="4"/>
<path d="M199.641 38.4675L200 38.533L200.359 38.4675L395.641 2.82856C396.869 2.60444 398 3.54772 398 4.79607V60.7214L200 152.296L2 60.7215V4.79607C2 3.54772 3.13101 2.60444 4.35907 2.82856L199.641 38.4675Z" fill="#080017" stroke="url(#paint3_linear_70_789)" stroke-width="4"/>
<path d="M199.031 42.75L199.897 44.25L200.763 42.75L203.794 37.5C204.564 36.1667 203.602 34.5 202.062 34.5L197.732 34.5C196.192 34.5 195.23 36.1667 196 37.5L199.031 42.75Z" fill="white" stroke="black" stroke-width="2"/>
<path d="M99.0118 73.388H110.961L108.168 77H94.6438V62.951H110.919L108.105 66.605H99.0118V68.285H110.142L107.643 71.477H99.0118V73.388ZM116.372 73.388H127.25L124.436 77H112.025V62.951H116.372V73.388ZM132.687 62.951V77H128.34V62.951H132.687ZM136.465 62.951H152.425L149.611 66.605H144.592V77H140.245V66.605H133.651L136.465 62.951ZM157.686 73.388H169.635L166.842 77H153.318V62.951H169.593L166.779 66.605H157.686V68.285H168.816L166.317 71.477H157.686V73.388ZM177.226 62.951H182.56L188.881 72.275L195.475 62.951H200.599L191.611 75.656C191.002 76.475 190.141 77.231 188.797 77.231C187.495 77.231 186.634 76.538 186.025 75.656L177.226 62.951ZM206.138 62.951V77H201.791V62.951H206.138ZM212.771 73.388H223.649L220.835 77H208.424V62.951H212.771V73.388ZM229.024 73.388H239.902L237.088 77H224.677V62.951H229.024V73.388ZM262.514 77H246.176L248.801 73.388H252.329C253.169 73.388 254.156 73.388 254.828 73.43C254.45 72.926 253.862 72.065 253.4 71.393L250.88 67.676L244.286 77H239.141L248.15 64.295C248.738 63.476 249.599 62.72 250.964 62.72C252.266 62.72 253.127 63.413 253.736 64.295L262.514 77ZM268.053 62.951V77H263.706V62.951H268.053ZM284.577 77.231C284.031 77.231 283.506 77.105 282.834 76.475L274.224 68.747V77H270.276V65.345C270.276 63.476 271.41 62.72 272.649 62.72C273.174 62.72 273.699 62.846 274.392 63.476L283.002 71.204V62.951H286.971V74.585C286.971 76.454 285.837 77.231 284.577 77.231ZM306.502 73.388L303.877 77H290.563C289.471 77 288.547 76.37 288.547 75.236C288.547 74.585 288.904 73.955 289.492 73.493L294.616 69.461C296.947 67.592 297.955 66.899 298.48 66.521C297.724 66.584 296.443 66.605 293.65 66.605H288.022L290.794 62.951H303.751C304.843 62.951 305.767 63.581 305.767 64.715C305.767 65.345 305.41 65.996 304.822 66.437L299.635 70.553C297.325 72.38 296.359 73.094 295.813 73.472C296.506 73.43 299.194 73.388 301.399 73.388H306.502ZM159.73 102.388H169.579L166.786 106H159.73C154.858 106 151.267 102.913 151.267 98.839C151.267 94.723 154.858 91.951 159.73 91.951H169.579L166.786 95.605H159.73C157.378 95.605 155.614 97.012 155.614 99.028C155.614 101.023 157.357 102.388 159.73 102.388ZM175.078 91.951V106H170.731V91.951H175.078ZM194.711 103.27L197.294 106H191.477L188.348 102.283H181.67V106H177.323V98.818H189.545C190.889 98.818 191.939 98.209 191.939 97.243C191.939 96.151 191.036 95.605 189.545 95.605H177.323L180.158 91.951H189.188C192.38 91.951 196.412 92.959 196.412 96.97C196.412 99.154 195.047 100.96 192.737 101.422C193.22 101.779 193.745 102.283 194.711 103.27ZM205.946 102.388H215.795L213.002 106H205.946C201.074 106 197.483 102.913 197.483 98.839C197.483 94.723 201.074 91.951 205.946 91.951H215.795L213.002 95.605H205.946C203.594 95.605 201.83 97.012 201.83 99.028C201.83 101.023 203.573 102.388 205.946 102.388ZM221.231 102.388H232.109L229.295 106H216.884V91.951H221.231V102.388ZM237.505 102.388H249.454L246.661 106H233.137V91.951H249.412L246.598 95.605H237.505V97.285H248.635L246.136 100.477H237.505V102.388Z" fill="white"/>
<defs>
<linearGradient id="paint0_linear_70_789" x1="200" y1="-5.5" x2="200" y2="581.415" gradientUnits="userSpaceOnUse">
<stop stop-color="#66677D"/>
<stop offset="0.0597528" stop-color="#080017"/>
<stop offset="0.484375" stop-color="#DDDEFA"/>
<stop offset="0.734375" stop-color="#080017"/>
<stop offset="0.911458" stop-color="#080017"/>
<stop offset="1" stop-color="#769BFF"/>
</linearGradient>
<linearGradient id="paint1_linear_70_789" x1="200" y1="-5.5" x2="200" y2="581.415" gradientUnits="userSpaceOnUse">
<stop stop-color="#66677D"/>
<stop offset="0.0597528" stop-color="#080017"/>
<stop offset="0.484375" stop-color="#DDDEFA"/>
<stop offset="0.734375" stop-color="#080017"/>
<stop offset="0.911458" stop-color="#080017"/>
<stop offset="1" stop-color="#769BFF"/>
</linearGradient>
<linearGradient id="paint2_linear_70_789" x1="290.5" y1="454.5" x2="98.5" y2="454.5" gradientUnits="userSpaceOnUse">
<stop stop-color="#2B3262"/>
<stop offset="0.469657" stop-color="#69E4FF"/>
<stop offset="1" stop-color="#2C3364"/>
</linearGradient>
<linearGradient id="paint3_linear_70_789" x1="200" y1="23.5" x2="260.779" y2="552.01" gradientUnits="userSpaceOnUse">
<stop stop-color="#5B5D93"/>
<stop offset="0.158923" stop-color="#45385C"/>
<stop offset="0.246347" stop-color="#63D2EF"/>
<stop offset="0.734375" stop-color="#080017"/>
<stop offset="1" stop-color="#636580"/>
</linearGradient>
</defs>
</svg>
