<svg width="15" height="15" viewBox="0 0 15 15" fill="none" xmlns="http://www.w3.org/2000/svg">
<path d="M12.6982 2.7309C11.7419 2.29215 10.7169 1.96902 9.64505 1.78402C9.62568 1.78027 9.6063 1.78965 9.59568 1.80715C9.4638 2.04152 9.31755 2.34777 9.21568 2.58777C8.06255 2.41527 6.91568 2.41527 5.7863 2.58777C5.68443 2.34215 5.53255 2.04152 5.40068 1.80715C5.39005 1.78965 5.37068 1.7809 5.3513 1.78402C4.28005 1.9684 3.25505 2.29152 2.29818 2.7309C2.29005 2.73402 2.28255 2.74027 2.27818 2.74777C0.333804 5.65277 -0.19932 8.48652 0.0619295 11.2853C0.0631795 11.299 0.0706795 11.3121 0.0813045 11.3203C1.36443 12.2628 2.60693 12.8346 3.82693 13.2134C3.8463 13.2196 3.86693 13.2121 3.87943 13.1959C4.16818 12.8021 4.42505 12.3865 4.64568 11.9496C4.6588 11.924 4.6463 11.8934 4.61943 11.8834C4.2113 11.7284 3.82318 11.5396 3.44943 11.3259C3.42005 11.3084 3.41755 11.2665 3.44443 11.2459C3.52318 11.1871 3.60193 11.1259 3.67693 11.064C3.69068 11.0528 3.70943 11.0503 3.72568 11.0578C6.18068 12.1784 8.83818 12.1784 11.2638 11.0578C11.2801 11.0503 11.2988 11.0521 11.3132 11.064C11.3882 11.1259 11.4669 11.1878 11.5463 11.2465C11.5738 11.2665 11.5719 11.309 11.5419 11.3265C11.1682 11.5446 10.7801 11.7296 10.3713 11.8834C10.3444 11.8934 10.3332 11.9246 10.3457 11.9503C10.5707 12.3865 10.8282 12.8021 11.1113 13.1959C11.1232 13.2128 11.1444 13.2196 11.1638 13.214C12.3894 12.8346 13.6326 12.2628 14.9151 11.3209C14.9263 11.3128 14.9332 11.3003 14.9344 11.2865C15.2469 8.0509 14.4107 5.24027 12.7169 2.74902C12.7138 2.74027 12.7063 2.73402 12.6982 2.7309ZM5.01255 9.58152C4.27318 9.58152 3.66443 8.90277 3.66443 8.06965C3.66443 7.23652 4.2613 6.55777 5.01255 6.55777C5.76943 6.55777 6.37255 7.24215 6.36068 8.06965C6.36068 8.9034 5.76318 9.58152 5.01255 9.58152ZM9.99693 9.58152C9.25818 9.58152 8.6488 8.90277 8.6488 8.06965C8.6488 7.23652 9.24568 6.55777 9.99693 6.55777C10.7538 6.55777 11.3569 7.24215 11.3451 8.06965C11.3451 8.9034 10.7538 9.58152 9.99693 9.58152Z" fill="white"/>
</svg>
