<svg width="332" height="83" viewBox="0 0 332 83" fill="none" xmlns="http://www.w3.org/2000/svg">
<rect x="18.0962" y="20.9072" width="299.872" height="49.0509" rx="13.2968" transform="rotate(-0.673265 18.0962 20.9072)" fill="#F14B64"/>
<path d="M108.479 56.8809C109.539 56.7114 110.945 56.3876 111.604 56.1612C113.636 55.464 115.12 55.6707 118.592 57.1353L121.816 58.4947L128.624 58.7862C132.412 58.9486 136.309 58.9603 137.409 58.8126C138.495 58.6668 140.441 58.4524 141.733 58.3362C143.024 58.2203 144.724 57.9216 145.509 57.6731C146.485 57.3645 147.034 57.324 147.24 57.5459C147.604 57.9377 147.782 57.8152 144.974 59.1048C142.121 60.4149 140.386 60.8615 135.372 61.5764C133.202 61.8858 130.546 62.4497 129.471 62.8298C128.395 63.2095 127.291 63.5143 127.017 63.5069C126.743 63.4995 126.031 63.7433 125.435 64.0485C124.839 64.3538 123.189 64.9445 121.769 65.3613C119.661 65.9793 118.574 66.1075 115.856 66.0578L112.525 65.9969L110.356 67.7896C109.164 68.7752 107.899 69.9033 107.546 70.2961C107.096 70.7975 106.379 71.0831 105.143 71.2543C102.005 71.6883 101.949 71.731 103.123 72.7868L104.138 73.7008L103.365 74.293C101.236 75.9224 93.6441 76.8195 90.3802 75.8274C88.5158 75.2606 87.3031 74.044 87.4259 72.8634C87.508 72.0764 87.3439 71.7806 86.4851 71.165C85.913 70.7552 85.1785 70.1924 84.8528 69.9151C84.2333 69.3869 83.6242 69.3847 79.0977 69.8937C76.9591 70.1341 74.7854 70.748 72.2293 71.8335C71.1242 72.3023 69.8871 72.4358 66.001 72.5041C63.334 72.551 59.3781 72.6483 57.2102 72.7202C55.0423 72.792 53.2059 72.7939 53.1293 72.7242C52.9002 72.5153 53.8519 72.046 54.4799 72.0577C55.413 72.0755 61.1032 69.6802 60.9974 69.3142C60.8653 68.8567 58.5459 68.2007 56.787 68.1229C54.7743 68.0342 52.9156 68.4818 49.8633 69.7902C46.2269 71.3488 43.2098 71.9175 35.7383 72.4525C33.4125 72.6193 32.557 72.573 31.9572 72.2478C31.5309 72.0168 30.0673 71.472 28.705 71.0375C26.2641 70.2592 26.2106 70.2553 25.0766 70.7843C24.3694 71.1144 22.9817 71.351 21.4782 71.3984C18.0915 71.5053 14.5093 70.4539 10.8304 68.2729C9.74897 67.6318 3.28671 65.417 2.41263 65.3878C2.00405 65.374 1.46917 65.2134 1.22418 65.031C0.682259 64.6266 7.68811 65.0994 9.53964 65.5919C11.8959 66.2186 13.1344 66.0781 14.238 65.0588C15.1554 64.2113 15.3814 64.1438 16.65 64.3376C17.4199 64.4551 19.2054 64.6702 20.6176 64.8153C22.0299 64.9604 23.6309 65.2988 24.1752 65.5669C25.8524 66.3928 28.7764 66.7932 31.1529 66.5228C32.8333 66.3312 33.7384 66.0173 35.2319 65.1077C36.8477 64.1236 37.1548 63.8006 37.1747 63.0639C37.1969 62.2443 37.311 62.1689 38.9736 61.8745C40.3284 61.6346 41.0217 61.3029 41.8999 60.4741C43.0274 59.41 43.1065 59.3874 45.7674 59.3657C49.1788 59.338 52.7492 60.1789 52.5917 60.9725C52.51 61.3857 52.7253 61.499 53.6395 61.5237C54.2934 61.5414 55.4099 61.9133 56.2248 62.3847C57.014 62.8411 59.101 63.679 60.8626 64.2461C64.4815 65.4113 66.2741 65.4495 69.1518 64.4222C70.3246 64.0037 71.5026 63.8609 73.37 63.9114C75.0646 63.9569 76.1577 63.8424 76.5298 63.5803C77.2064 63.1035 77.1422 63.056 74.537 62.1046C72.981 61.5366 72.5159 61.2295 72.528 60.779C72.538 60.4106 72.264 60.1124 71.7924 59.9782C70.7222 59.673 70.8737 59.289 72.1989 58.9469C74.4472 58.3665 75.4649 58.3507 76.8205 58.875C77.5763 59.167 79.1688 59.4254 80.442 59.4623C81.6915 59.4986 83.178 59.6778 83.7447 59.8603C84.5639 60.1244 84.8867 60.0951 85.318 59.718C86.0555 59.0733 87.9659 59.4732 89.934 60.6836C90.7618 61.193 91.9437 61.8489 92.5604 62.1412C93.1775 62.4338 93.6896 62.7625 93.6991 62.8719C93.7962 63.9978 94.0591 64.6937 94.703 65.5291C95.6793 66.7958 97.7299 68.0187 98.5342 67.814C100.246 67.3779 100.882 66.968 101.373 65.9828C101.999 64.726 103.224 63.9383 104.907 63.7103C106.059 63.5545 106.115 63.4982 105.957 62.6568C105.818 61.9114 105.949 61.6489 106.771 61.0287C107.725 60.3082 107.741 60.2592 107.383 59.1556C107.181 58.5321 106.906 58.0191 106.773 58.0155C106.64 58.0119 106.536 57.8246 106.542 57.5992C106.549 57.3398 107.26 57.0763 108.479 56.8809Z" fill="#F14B64"/>
<path d="M211.849 68.4809C210.778 68.5475 209.348 68.7345 208.67 68.8962C206.58 69.3945 205.123 69.0458 201.808 67.2535L198.73 65.5898L191.981 64.6438C188.227 64.1174 184.349 63.7303 183.24 63.7714C182.144 63.8118 180.187 63.8378 178.89 63.8291C177.594 63.82 175.873 63.9535 175.067 64.1252C174.066 64.3384 173.516 64.3258 173.333 64.0851C173.008 63.6601 172.819 63.7649 175.738 62.7517C178.704 61.7226 180.474 61.4452 185.534 61.2166C187.724 61.1177 190.421 60.8123 191.528 60.5376C192.635 60.2632 193.764 60.0661 194.036 60.0999C194.308 60.1337 195.04 59.9597 195.662 59.7132C196.285 59.4668 197.984 59.0377 199.438 58.7597C201.595 58.3476 202.69 58.3248 205.39 58.636L208.7 59.0176L211.031 57.4421C212.314 56.576 213.681 55.575 214.07 55.218C214.566 54.7623 215.307 54.547 216.554 54.4958C219.72 54.366 219.779 54.3289 218.713 53.165L217.79 52.1574L218.617 51.6425C220.893 50.2257 228.536 50.0641 231.689 51.366C233.49 52.1098 234.58 53.4376 234.344 54.6008C234.186 55.3762 234.321 55.6865 235.117 56.3819C235.647 56.8449 236.324 57.4759 236.621 57.7833C237.187 58.3687 237.793 58.4296 242.347 58.359C244.499 58.3257 246.722 57.924 249.371 57.0899C250.516 56.7296 251.76 56.716 255.635 57.0223C258.294 57.2326 262.241 57.5167 264.405 57.6541C266.57 57.7915 268.398 57.9664 268.468 58.0432C268.676 58.2732 267.683 58.6487 267.059 58.5765C266.132 58.4689 260.238 60.3049 260.308 60.6794C260.395 61.1475 262.641 62.0239 264.384 62.2708C266.379 62.5529 268.272 62.2865 271.436 61.2782C275.206 60.0771 278.263 59.8017 285.752 59.9889C288.083 60.047 288.93 60.1754 289.495 60.5569C289.898 60.8279 291.302 61.5111 292.616 62.0749C294.971 63.0846 295.023 63.0937 296.203 62.6764C296.939 62.416 298.343 62.3142 299.844 62.4118C303.225 62.6317 306.689 64.0232 310.141 66.5485C311.156 67.2907 317.375 70.1177 318.242 70.231C318.647 70.2841 319.164 70.4955 319.39 70.7007C319.891 71.1554 312.963 70.01 311.168 69.3413C308.883 68.4906 307.636 68.5111 306.44 69.4193C305.445 70.1746 305.213 70.2199 303.969 69.9049C303.214 69.7137 301.458 69.3276 300.066 69.0472C298.675 68.7667 297.114 68.2757 296.598 67.9564C295.008 66.9727 292.136 66.2925 289.745 66.3328C288.053 66.3616 287.122 66.5869 285.548 67.3483C283.845 68.1722 283.508 68.4641 283.417 69.1955C283.316 70.0091 283.196 70.0732 281.512 70.206C280.141 70.3143 279.419 70.5777 278.465 71.3181C277.24 72.2686 277.159 72.2835 274.509 72.0488C271.11 71.7477 267.638 70.5667 267.871 69.792C267.992 69.3887 267.788 69.2551 266.881 69.1424C266.232 69.0619 265.156 68.5841 264.391 68.0364C263.649 67.5061 261.652 66.471 259.954 65.7369C256.464 64.2286 254.683 64.0178 251.72 64.7631C250.512 65.0667 249.326 65.0953 247.472 64.8652C245.79 64.6567 244.691 64.6653 244.295 64.8904C243.576 65.2998 243.635 65.3532 246.137 66.5512C247.631 67.2664 248.064 67.6169 248.008 68.0641C247.963 68.4299 248.207 68.753 248.664 68.9321C249.699 69.3389 249.512 69.7066 248.16 69.9194C245.866 70.2806 244.851 70.1982 243.553 69.5458C242.828 69.1823 241.268 68.7717 240.005 68.6123C238.764 68.4559 237.302 68.1343 236.756 67.8981C235.966 67.5563 235.641 67.5543 235.176 67.8881C234.38 68.4588 232.517 67.8768 230.674 66.4823C229.899 65.8956 228.786 65.1289 228.2 64.7786C227.614 64.4278 227.136 64.0513 227.137 63.9416C227.149 62.8115 226.955 62.0935 226.394 61.2C225.544 59.8451 223.621 58.4304 222.801 58.5567C221.055 58.8258 220.383 59.1726 219.799 60.1059C219.055 61.2965 217.759 61.9625 216.062 62.0273C214.901 62.0715 214.84 62.1221 214.916 62.9748C214.983 63.7301 214.827 63.9788 213.949 64.517C212.93 65.1422 212.91 65.1895 213.16 66.3224C213.301 66.9625 213.524 67.4995 213.656 67.5159C213.788 67.5323 213.874 67.7287 213.846 67.9525C213.814 68.21 213.082 68.4039 211.849 68.4809Z" fill="#F14B64"/>
<path d="M194.076 14.802C192.726 14.7387 190.929 14.5578 190.082 14.4C187.47 13.914 185.607 14.2602 181.306 16.0312L177.313 17.675L168.724 18.6202C163.946 19.1462 159.019 19.5353 157.62 19.4973C156.237 19.4597 153.763 19.4383 152.124 19.4496C150.484 19.4612 148.317 19.3335 147.308 19.1662C146.055 18.9585 145.359 18.972 145.113 19.2093C144.677 19.6283 144.444 19.5256 148.073 20.5166C151.76 21.5231 153.981 21.7925 160.364 22.0068C163.127 22.0995 166.519 22.3944 167.901 22.6625C169.284 22.9302 170.699 23.1217 171.045 23.0879C171.391 23.0541 172.306 23.2238 173.078 23.4651C173.851 23.7063 175.973 24.125 177.794 24.3956C180.496 24.7966 181.879 24.8168 185.312 24.5048L189.519 24.1223L192.371 25.6679C193.94 26.5177 195.608 27.4999 196.078 27.8504C196.678 28.2979 197.601 28.5082 199.175 28.5561C203.168 28.6771 203.241 28.7135 201.823 29.8612L200.595 30.8548L201.609 31.3599C204.4 32.7494 214.053 32.8924 218.119 31.6044C220.441 30.8687 221.9 29.5596 221.673 28.4153C221.52 27.6525 221.71 27.3468 222.758 26.6607C223.456 26.2039 224.35 25.5815 224.745 25.2783C225.496 24.701 226.266 24.6398 232.02 24.6997C234.738 24.7279 237.524 25.1186 240.822 25.934C242.248 26.2861 243.82 26.2969 248.737 25.9873C252.112 25.7748 257.119 25.4868 259.865 25.347C262.61 25.2073 264.932 25.0313 265.024 24.9556C265.301 24.7287 264.069 24.3613 263.276 24.4336C262.097 24.5415 254.757 22.7469 254.868 22.3783C255.007 21.9174 257.899 21.0501 260.118 20.8035C262.657 20.5216 265.035 20.7798 268.974 21.7655C273.667 22.9397 277.516 23.2043 286.995 23.0043C289.945 22.9422 291.024 22.814 291.762 22.4374C292.287 22.1699 294.104 21.4945 295.8 20.9369C298.838 19.9381 298.906 19.9291 300.372 20.3373C301.286 20.5921 303.055 20.6893 304.959 20.5901C309.247 20.3666 313.711 18.9897 318.229 16.4972C319.557 15.7645 327.591 12.9692 328.695 12.8559C329.21 12.8028 329.877 12.5936 330.175 12.3912C330.836 11.9427 322.007 13.0845 319.697 13.7464C316.756 14.5885 315.182 14.5709 313.724 13.6795C312.512 12.9383 312.222 12.8942 310.63 13.2069C309.664 13.3966 307.42 13.7803 305.643 14.0592C303.867 14.3382 301.863 14.8247 301.192 15.1401C299.122 16.1115 295.45 16.787 292.429 16.7524C290.292 16.7276 289.129 16.5078 287.185 15.7617C285.082 14.9545 284.674 14.6679 284.603 13.9482C284.525 13.1477 284.376 13.0849 282.256 12.9577C280.529 12.854 279.632 12.5963 278.471 11.8697C276.98 10.9368 276.879 10.9223 273.513 11.1589C269.199 11.4623 264.736 12.6319 264.984 13.3939C265.113 13.7906 264.847 13.9225 263.693 14.0353C262.867 14.1159 261.479 14.5884 260.477 15.129C259.507 15.6525 256.92 16.6754 254.728 17.4015C250.224 18.8933 247.96 19.1045 244.259 18.3772C242.75 18.0809 241.252 18.0553 238.894 18.2857C236.755 18.4944 235.366 18.4882 234.879 18.2675C233.995 17.8661 234.073 17.8134 237.308 16.6292C239.241 15.9221 239.81 15.5763 239.767 15.1362C239.732 14.7764 240.06 14.4578 240.648 14.2806C241.982 13.878 241.767 13.5166 240.071 13.3099C237.193 12.9593 235.905 13.0425 234.223 13.6873C233.286 14.0466 231.288 14.454 229.681 14.6135C228.103 14.7701 226.235 15.0897 225.53 15.3233C224.51 15.6614 224.1 15.664 223.532 15.3364C222.56 14.7764 220.169 15.3532 217.755 16.7294C216.74 17.3085 215.286 18.0654 214.524 18.4115C213.762 18.7578 213.134 19.1294 213.129 19.2374C213.075 20.3496 212.786 21.0566 212.023 21.9372C210.866 23.2725 208.349 24.6688 207.319 24.5462C205.128 24.285 204.299 23.9452 203.618 23.0279C202.749 21.8576 201.152 21.2049 199.01 21.1447C197.545 21.1037 197.471 21.054 197.618 20.2147C197.749 19.4711 197.567 19.2267 196.49 18.6989C195.24 18.0857 195.217 18.0392 195.602 16.9236C195.819 16.2934 196.134 15.7644 196.303 15.748C196.47 15.7316 196.59 15.5381 196.569 15.3179C196.544 15.0645 195.63 14.8753 194.076 14.802Z" fill="#F14B64"/>
<path d="M41.756 49.808H62.24L57.452 56H34.268V31.916H62.168L57.344 38.18H41.756V41.06H60.836L56.552 46.532H41.756V49.808ZM88.6156 31.916H98.2636L90.6676 38.864C87.3196 41.888 86.2036 42.86 85.3036 43.544C86.1676 44.12 87.2476 45.128 91.1356 48.764L98.8396 56H88.3276L80.1196 48.044L71.6596 56H62.4076L70.2556 48.764C73.9276 45.38 74.9716 44.516 75.8716 43.832C74.9716 43.184 74.0356 42.356 70.2556 38.828L62.8756 31.916H73.2076L80.8756 39.404L88.6156 31.916ZM111.338 49.808H128.222L123.434 56H111.338C102.986 56 96.8298 50.708 96.8298 43.724C96.8298 36.668 102.986 31.916 111.338 31.916H128.222L123.434 38.18H111.338C107.306 38.18 104.282 40.592 104.282 44.048C104.282 47.468 107.27 49.808 111.338 49.808ZM137.54 49.808H156.188L151.364 56H130.088V31.916H137.54V49.808ZM189.234 31.916V45.488C189.234 52.76 184.23 56.396 174.222 56.396C162.63 56.396 157.626 52.76 157.626 45.488V31.916H165.042V45.488C165.042 49.052 166.554 50.204 174.222 50.204C179.946 50.204 181.746 48.872 181.746 45.488V31.916H189.234ZM201.954 41.528H215.058C220.926 41.528 224.094 43.724 224.094 48.116C224.094 53.048 221.106 56 213.762 56H191.334L196.122 49.808H214.338C216.102 49.808 216.894 49.304 216.894 48.044C216.894 46.82 216.102 46.316 214.338 46.316H201.234C195.042 46.316 192.198 43.544 192.198 39.404C192.198 34.868 195.222 31.916 202.53 31.916H223.446L218.658 38.18H201.954C200.226 38.18 199.398 38.612 199.398 39.836C199.398 41.06 200.226 41.528 201.954 41.528ZM234.242 31.916V56H226.79V31.916H234.242ZM236.29 31.916H245.434L256.27 47.9L267.574 31.916H276.358L260.95 53.696C259.906 55.1 258.43 56.396 256.126 56.396C253.894 56.396 252.418 55.208 251.374 53.696L236.29 31.916ZM285.781 49.808H306.265L301.477 56H278.293V31.916H306.193L301.369 38.18H285.781V41.06H304.861L300.577 46.532H285.781V49.808Z" fill="black"/>
</svg>
