<svg width="161" height="161" viewBox="0 0 161 161" fill="none" xmlns="http://www.w3.org/2000/svg">
<path d="M90.2499 55.7326C74.9702 48.8331 53.8227 57.7543 46.7882 73.3186C39.7396 88.9352 48.8243 106.799 64.0516 113.684C79.3313 120.584 98.581 115.811 105.63 100.194C112.731 84.5916 105.53 62.6321 90.2499 55.7326ZM69.3238 110.932C56.5022 105.757 45.5117 89.9974 51.3172 77.1336C57.1227 64.2698 75.0075 55.5599 88.1199 59.8589C98.7594 63.3269 107.937 80.5047 103.517 95.535C99.4014 109.637 82.0405 116.079 69.3238 110.932Z" fill="#ED6E23"/>
<path d="M75.5441 57.4188C75.5441 57.4188 59.4894 56.4391 50.7665 69.4649C50.7665 69.4649 56.1949 64.0703 57.5941 64.6444C58.9934 65.2185 57.3883 67.9353 57.3883 67.9353C57.3883 67.9353 59.5892 62.3053 75.5441 57.4188Z" fill="#F59E4C"/>
<path d="M87.7936 107.029C87.7936 107.029 91.8957 103.247 86.4492 95.2793C86.4492 95.2793 92.8359 102.882 97.611 100.57C95.5495 104.282 90.4922 109.323 87.7936 107.029Z" fill="#ED6E23"/>
<path d="M80.158 53.3667C80.158 53.3667 91.8671 52.6329 98.4777 49.1301C105.102 45.5751 128.859 26.9171 128.859 26.9171C128.859 26.9171 101.414 54.5178 106.822 59.277C112.23 64.0363 120.091 57.3339 120.091 57.3339C120.091 57.3339 107.84 69.3122 110.38 73.247C112.933 77.1294 118.637 75.9645 118.637 75.9645C118.637 75.9645 109.528 79.3589 108.385 87.188C108.371 87.2404 105.77 60.6111 80.158 53.3667Z" fill="#ED6E23"/>
<path d="M104.983 50.4241C106.689 49.0859 107.969 48.0823 107.969 48.0823C107.969 48.0823 99.2625 58.1489 101.107 61.9535C102.952 65.7581 108.432 64.5894 108.432 64.5894C108.432 64.5894 101.393 73.2515 108.513 77.9084C108.513 77.9084 106.616 78.0733 105.713 86.4719C106.434 81.8959 104.695 73.2946 98.5629 66.2091C94.0188 60.9519 84.9941 56.9066 84.9941 56.9066L86.1122 56.9257C92.9151 56.897 99.5979 54.5919 104.983 50.4241Z" fill="#F59E4C"/>
<path d="M45.1856 91.4614C45.1856 91.4614 48.0824 98.4654 42.9071 102.689C42.9071 102.689 48.0275 100.976 48.8329 106.353C49.6524 111.678 30.4743 132.741 30.4743 132.741C30.4743 132.741 51.8489 109.349 57.6906 113.327C63.5182 117.357 57.6252 126.775 57.6252 126.775C57.6252 126.775 64.0978 114.146 70.9618 115.986L45.1856 91.4614Z" fill="#ED6E23"/>
<path d="M50.5131 91.4875C50.5131 91.4875 48.9421 97.3504 47.3996 99.1253C47.3996 99.1253 57.4065 102.648 50.3026 110.507C50.3026 110.507 54.4852 106.635 59.1543 109.12C63.8374 111.553 61.4112 116.626 61.4112 116.626C61.4112 116.626 64.2042 111.651 68.1798 112.324C68.1414 112.257 52.1059 106.502 50.5131 91.4875Z" fill="#F59E4C"/>
<path d="M56.842 96.1555C56.842 96.1555 60.9199 99.3802 67.8097 92.5298C67.8097 92.5298 61.4327 100.191 64.6257 104.413C60.5948 103.108 55.134 99.1764 56.842 96.1555Z" fill="#ED6E23"/>
<path d="M67.0185 55.4562C67.0185 55.4562 55.5436 52.3815 42.1367 30.9473C42.1367 30.9473 57.1832 55.0651 51.9985 65.4021L67.0185 55.4562Z" fill="#ED6E23"/>
<path d="M102.663 104.562C102.663 104.562 101.916 114.685 115.477 131.56C115.477 131.56 100.227 112.606 90.4039 113.845L102.663 104.562Z" fill="#ED6E23"/>
<path d="M64.4312 52.125C64.4312 52.125 74.7062 45.8451 86.7633 50.3101C86.7633 50.3101 74.9492 43.8903 64.4312 52.125Z" fill="#FEDE67"/>
<path d="M92.5462 118.008C92.5462 118.008 82.055 123.838 70.1766 118.915C70.1766 118.915 81.6932 125.817 92.5462 118.008Z" fill="#FEDE67"/>
<path d="M49.6539 64.1003C49.6539 64.1003 44.4749 68.5477 44.1792 74.4719C44.1792 74.4719 41.2853 68.0858 36.3778 66.4903C36.3778 66.4903 42.5635 68.7649 42.3889 65.0151C42.2808 61.227 30.4229 49.5215 30.4229 49.5215C30.4229 49.5215 42.5427 61.2972 49.6539 64.1003Z" fill="#FEDE67"/>
<path d="M110.912 92.0154C110.912 92.0154 111.206 98.8831 107.058 103.046C107.058 103.046 113.674 100.779 118.225 103.289C118.225 103.289 112.34 100.309 115.183 97.8728C118.026 95.4365 134.699 96.0887 134.699 96.0887C134.699 96.0887 117.792 95.2616 110.912 92.0154Z" fill="#FEDE67"/>
</svg>
