<svg width="160" height="161" viewBox="0 0 160 161" fill="none" xmlns="http://www.w3.org/2000/svg">
<path d="M70.6851 53.9472C70.6851 53.9472 52.4307 57.5452 49.6079 70.1107C49.6079 70.1107 55.5672 58.3202 79.0281 60.3683C102.489 62.4164 105.375 79.9084 105.375 79.9084C105.375 79.9084 101.297 64.2431 108.386 66.9001C108.386 66.9555 91.2604 50.2385 70.6851 53.9472Z" fill="white"/>
<path d="M73.3818 56.6595C73.3818 56.6595 89.0642 53.4489 101.736 64.1323C101.736 64.1323 99.101 65.1287 101.171 68.2285C101.234 68.2285 94.8354 56.2167 73.3818 56.6595Z" fill="#AEAEAE"/>
<path d="M89.5665 116.5C69.5557 122.533 50.1096 111.629 43.7112 99.8381C37.3755 88.1583 41.9547 77.0321 42.0802 76.8107C42.0175 77.0321 40.1983 85.2245 45.9067 84.0621C49.7332 83.2871 48.8142 80.8514 49.8806 76.8105C44.1722 107.477 70.6849 109.193 76.2051 110.023C73.2568 109.691 65.7292 109.193 68.4266 112.016C71.814 115.448 89.5665 116.5 89.5665 116.5Z" fill="white"/>
<path d="M49.6074 86.1621C49.6074 86.2175 49.6074 87.2138 49.4819 88.4316C49.4819 87.712 49.4819 86.9371 49.6074 86.1621Z" fill="#AEAEAE"/>
<path d="M55.6743 108.04C47.2947 105.2 44.0736 93.3617 44.0736 93.3617L43.981 92.9785C43.981 92.9785 45.1427 96.3026 46.6522 96.4783C47.6472 96.5981 47.3748 94.1405 47.0879 92.3623C48.5072 97.7871 52.5955 102.116 55.6853 104.388C55.0048 104.237 54.389 104.205 54.0451 104.559C52.7563 105.592 55.5861 107.972 55.6743 108.04Z" fill="#AEAEAE"/>
<path d="M53.1831 109.91C53.1831 109.91 57.2605 113.453 54.5004 119.044C54.5004 119.044 56.8214 114.505 64.0981 115.612L53.1831 109.91Z" fill="white"/>
<path d="M105.374 85.498C105.374 85.498 107.068 105.979 87.5591 108.636C87.5591 108.636 98.0349 107.529 99.6659 109.577C101.234 111.625 95.5885 114.559 95.5885 114.559C95.5885 114.559 110.455 110.131 105.374 85.498Z" fill="white"/>
<path d="M108.385 70.8848C110.769 77.5826 114.784 92.7497 108.385 100.555C108.385 100.555 115.599 94.5211 113.78 84.5573C112.463 77.0291 108.385 70.8848 108.385 70.8848Z" fill="white"/>
<path d="M80.2827 53.6147C80.2827 53.6147 88.1239 52.6184 95.9651 41.6582C95.9651 41.6582 90.3822 50.6256 92.2013 56.6592L80.2827 53.6147Z" fill="white"/>
<path d="M106.566 25.1074C106.315 25.4395 102.614 30.6982 98.5996 38.1157C101.297 34.2409 103.994 29.9232 106.566 25.1074Z" fill="white"/>
<path d="M130.529 119.045C130.153 118.768 124.821 114.838 117.042 110.299C120.994 113.233 125.511 116.166 130.529 119.045Z" fill="white"/>
<path d="M46.0317 135.042C46.2827 134.654 49.6073 129.285 53.1829 121.701C50.7365 125.687 48.29 130.115 46.0317 135.042Z" fill="white"/>
<path d="M43.5229 67.3423C42.2056 60.7552 35.1799 53.393 30.8516 49.4629C38.5673 54.943 50.9878 57.9875 50.9878 57.9875C42.3311 57.8768 43.5229 67.0102 43.5229 67.3423Z" fill="white"/>
<path d="M37.0617 83.1724C35.4307 81.1243 33.5488 79.9618 33.5488 79.9618C34.8662 78.744 35.8071 77.028 33.8625 74.0943C32.4197 71.9354 27.5268 69.057 25.1431 67.7285C30.6633 70.3855 40.9509 72.3783 40.9509 72.3783C34.7407 77.9691 36.999 83.0063 37.0617 83.1724Z" fill="#CDCDCD"/>
<path d="M116.665 84.3373C116.665 84.3373 129.086 85.4998 134.857 84.0605C134.857 84.0605 125.573 85.7212 122.75 87.9354C119.865 90.1495 120.178 92.0316 120.994 93.5815C120.994 93.5815 118.736 94.1904 116.477 95.685C116.415 95.6296 120.555 91.4227 116.665 84.3373Z" fill="#CDCDCD"/>
<path d="M77.0207 48.9101C77.0207 48.9101 67.6113 47.8584 63.2202 51.1796C63.2202 51.1796 68.3013 48.9654 77.0207 48.9101Z" fill="#CDCDCD"/>
<path d="M82.6035 121.037C82.6035 121.037 91.8875 122.642 96.5295 119.598C96.5922 119.598 91.2602 121.48 82.6035 121.037Z" fill="#CDCDCD"/>
<path d="M35.8701 93.416C35.8701 93.416 38.0029 103.933 44.9659 107.587C44.9659 107.531 34.5528 104.21 35.8701 93.416Z" fill="#CDCDCD"/>
</svg>
