<svg width="160" height="161" viewBox="0 0 160 161" fill="none" xmlns="http://www.w3.org/2000/svg">
<path d="M83.1527 114.483C80.9137 114.685 78.7765 114.584 76.5375 114.282C74.4003 113.98 72.263 113.476 70.1258 112.771C65.9531 111.36 62.1875 109.043 59.0325 106.221C57.4042 104.811 55.9794 103.199 54.7581 101.587C53.435 99.8739 52.3155 98.0603 51.3996 96.2467C49.4659 92.5187 48.3464 88.3878 47.9393 84.2568C47.5322 80.1258 47.9393 75.8941 49.1606 71.8639C50.3818 67.8337 52.4173 64.1057 55.0634 60.7808C57.7095 57.4559 60.9662 54.7355 64.7318 52.6196C68.4974 50.5038 72.6701 49.194 76.9446 48.6902C81.219 48.1864 85.6971 48.4887 89.8698 49.6977C94.0425 50.9068 98.1134 52.8212 101.574 55.5415C105.034 58.2619 107.985 61.6876 110.123 65.5163C112.26 69.345 113.583 73.6775 114.092 78.1107C114.295 80.3273 114.295 82.544 114.092 84.7606C113.888 86.9772 113.481 89.1938 112.769 91.3097C112.158 93.4255 111.242 95.4406 110.123 97.4557C109.003 99.3701 107.782 101.184 106.357 102.897C103.507 106.221 99.9453 109.043 95.9761 111.058C91.9052 112.972 87.529 114.181 83.1527 114.483ZM82.8474 111.461C90.8875 110.554 98.3169 106.524 103.304 100.378C105.848 97.355 107.68 93.8286 108.901 90.1006C110.123 86.3727 110.53 82.4432 110.224 78.5138C109.614 70.6548 105.746 63.0982 99.64 57.9597C96.5868 55.34 93.0247 53.3249 89.1573 52.0151C85.29 50.7053 81.2191 50.2015 77.0464 50.403C72.9754 50.7053 68.9045 51.7128 65.1389 53.5264C61.4751 55.34 58.0148 57.9597 55.3687 61.0831C52.6208 64.2065 50.5854 67.9344 49.2623 71.8639C48.6517 73.879 48.1428 75.8941 47.9393 78.01C47.7357 80.1258 47.7357 82.1409 47.9393 84.2568C48.3464 88.3878 49.5677 92.5187 51.7049 96.0452C52.7226 97.8588 53.9439 99.5716 55.3687 101.083C56.7935 102.594 58.3201 104.005 59.9485 105.315C63.2052 107.834 66.9708 109.546 70.94 110.554C74.8074 111.662 78.8783 111.864 82.8474 111.461Z" fill="#9CFFFF"/>
<path d="M68.7009 51.709C68.2938 52.2127 76.3338 46.4697 85.6969 50.2984C84.5774 50.1976 76.9445 43.3463 75.7232 31.9609C75.7232 31.9609 75.9267 45.6637 68.7009 51.709Z" fill="#9CFFFF"/>
<path d="M75.2153 113.574C75.2153 113.574 83.9678 117.503 91.0919 110.35C90.0742 110.753 84.5784 119.921 86.5121 131.71C86.4104 131.71 83.7643 117.604 75.2153 113.574Z" fill="#9CFFFF"/>
<path d="M66.869 60.7734L59.236 45.0555L45.5984 39.111C43.7665 34.3755 36.5406 26.7181 30.1289 19.5645L48.9569 36.8944C53.1296 40.6223 59.1342 42.1336 66.869 41.5291C64.5282 45.257 64.8335 52.0076 66.869 60.7734Z" fill="#4B89C8"/>
<path d="M66.8691 76.3926L56.4883 86.2666C56.4883 86.2666 63.6124 83.647 66.8691 86.2666C70.1259 88.8862 71.2454 98.861 71.2454 98.861V76.3926L66.8691 82.7402V76.3926Z" fill="#4B89C8"/>
<path d="M56.4881 95.7266L39.492 108.623L52.4172 104.593L30.1289 141.469C39.7973 126.255 49.0587 110.135 63.8158 104.593C63.8158 104.593 55.8775 107.313 56.3863 103.485C56.997 99.7568 56.4881 95.7266 56.4881 95.7266Z" fill="#4B89C8"/>
<path d="M104.932 66.8228C107.374 67.0243 98.9273 82.7421 98.9273 82.7421C108.29 66.0167 118.468 51.6087 130.375 41.5332C119.18 48.1831 101.472 68.4349 93.3298 68.3341C86.7146 68.2333 87.7323 55.8405 87.7323 55.8405L82.1348 82.7421C82.1348 82.7421 90.6837 72.4651 101.777 68.3341" fill="#4B89C8"/>
<path d="M82.2382 92.7109C82.2382 92.7109 82.0346 101.376 78.269 104.096C78.269 104.096 83.9683 101.074 87.9375 102.686C91.9066 104.298 108.699 120.922 108.699 120.922C108.699 120.922 91.8048 105.507 91.6013 100.872C91.4995 97.9502 99.4378 102.585 99.4378 102.585C99.4378 102.585 88.7517 95.2298 88.0392 94.726C87.3268 94.2223 90.7871 100.469 88.0392 99.7638C85.0878 98.9578 82.2382 92.7109 82.2382 92.7109Z" fill="#4B89C8"/>
<path d="M63.9159 51.1916C63.9159 51.1916 62.1857 45.3478 61.6769 44.441C61.168 43.5342 50.5836 40.713 47.2251 38.2949C47.2251 38.2949 57.3006 42.7282 60.6591 42.9297C64.0176 43.1312 64.9336 42.6274 64.9336 42.6274C64.9336 42.6274 63.1017 46.3553 63.9159 51.1916Z" fill="#9CFFFF"/>
<path d="M87.0198 65.4074C87.0198 65.4074 86.7144 73.4678 84.7808 77.1958C84.7808 77.1958 99.029 67.1203 103.609 65.9112C108.189 64.6014 106.153 68.6316 106.153 68.6316C106.153 68.6316 113.277 56.8432 115.516 54.8281C115.516 54.8281 109.104 62.687 106.153 63.7953C103.1 64.9036 91.8031 70.949 88.8517 72.5611L87.0198 65.4074Z" fill="#9CFFFF"/>
<path d="M64.935 80.3184L61.8818 83.4418C61.8818 83.4418 68.1918 83.0388 70.0237 89.5878V80.8221C70.0237 80.8221 69.5148 84.5501 68.1918 84.2478C66.9705 84.0463 64.5279 82.8372 64.935 80.3184Z" fill="#9CFFFF"/>
<path d="M47.2251 104.294L54.7563 98.8535C54.7563 98.8535 53.1279 103.388 55.6723 105.403L47.2251 115.579L53.9421 105C53.9421 105 52.4155 103.69 53.0262 101.675L47.2251 104.294Z" fill="#9CFFFF"/>
<path d="M83.2543 96.4375C83.2543 96.4375 83.7631 99.4602 82.1348 100.871C82.1348 100.871 87.8341 100.367 90.2766 102.684C90.2766 102.684 90.2766 98.8556 92.1085 98.8556C92.1085 98.8556 89.7677 97.9488 89.5642 100.669C89.5642 100.669 86.511 101.072 85.2897 99.5609C84.0685 98.0496 83.2543 96.4375 83.2543 96.4375Z" fill="#70CAEE"/>
</svg>
