<svg width="15" height="15" viewBox="0 0 15 15" fill="none" xmlns="http://www.w3.org/2000/svg">
<g clip-path="url(#clip0_0_78)">
<path fill-rule="evenodd" clip-rule="evenodd" d="M7.4707 0.878906C5.68048 0.878906 5.45581 0.886597 4.75269 0.918457C3.7337 0.965149 2.72186 1.2486 1.98523 1.98523C1.24585 2.72461 0.965149 3.73425 0.918457 4.75269C0.886597 5.45581 0.878906 5.68048 0.878906 7.4707C0.878906 9.26093 0.886597 9.4856 0.918457 10.1887C0.965149 11.2066 1.24969 12.2212 1.98523 12.9562C2.72406 13.695 3.73535 13.9763 4.75269 14.0229C5.45581 14.0548 5.68048 14.0625 7.4707 14.0625C9.26093 14.0625 9.4856 14.0548 10.1887 14.0229C11.2072 13.9763 12.2201 13.6923 12.9562 12.9562C13.6961 12.2162 13.9763 11.2072 14.0229 10.1887C14.0548 9.4856 14.0625 9.26093 14.0625 7.4707C14.0625 5.68048 14.0548 5.45581 14.0229 4.75269C13.9763 3.7337 13.6923 2.72131 12.9562 1.98523C12.2184 1.2475 11.2044 0.9646 10.1887 0.918457C9.4856 0.886597 9.26093 0.878906 7.4707 0.878906ZM7.4707 4.08581C5.60138 4.08581 4.08581 5.60138 4.08581 7.4707C4.08581 9.34002 5.60138 10.8556 7.4707 10.8556C9.34002 10.8556 10.8556 9.34002 10.8556 7.4707C10.8556 5.60138 9.34002 4.08581 7.4707 4.08581ZM7.4707 9.66797C6.25726 9.66797 5.27344 8.68414 5.27344 7.4707C5.27344 6.25726 6.25726 5.27344 7.4707 5.27344C8.68414 5.27344 9.66797 6.25726 9.66797 7.4707C9.66797 8.68414 8.68414 9.66797 7.4707 9.66797ZM11.7805 3.95215C11.7805 4.38901 11.4264 4.74316 10.9895 4.74316C10.5526 4.74316 10.1985 4.38901 10.1985 3.95215C10.1985 3.51528 10.5526 3.16113 10.9895 3.16113C11.4264 3.16113 11.7805 3.51528 11.7805 3.95215Z" fill="white"/>
</g>
<defs>
<clipPath id="clip0_0_78">
<rect width="15" height="15" fill="white"/>
</clipPath>
</defs>
</svg>
