<svg width="180" height="38" viewBox="0 0 180 38" fill="none" xmlns="http://www.w3.org/2000/svg">
<path d="M0 0.311566H7.19434L15.7199 12.8875L24.6137 0.311566H31.5248L19.4021 17.4477C18.5807 18.5523 17.4194 19.572 15.6066 19.572C13.8505 19.572 12.6892 18.6373 11.8678 17.4477L0 0.311566Z" fill="white"/>
<path d="M39.5622 0.311566V19.2604H33.6991V0.311566H39.5622Z" fill="white"/>
<path d="M49.0754 14.3887H63.7473L59.9519 19.2604H43.2123V0.311566H49.0754V14.3887Z" fill="white"/>
<path d="M71.5632 14.3887H86.2352L82.4397 19.2604H65.7001V0.311566H71.5632V14.3887Z" fill="white"/>
<path d="M117.299 19.2604H95.2633L98.8038 14.3887H103.562C104.695 14.3887 106.026 14.3887 106.933 14.4453C106.423 13.7655 105.63 12.6043 105.007 11.6979L101.608 6.6845L92.7141 19.2604H85.7747L97.9257 2.12431C98.7188 1.01967 99.8801 0 101.721 0C103.477 0 104.639 0.934697 105.46 2.12431L117.299 19.2604Z" fill="white"/>
<path d="M125.337 0.311566V19.2604H119.474V0.311566H125.337Z" fill="white"/>
<path d="M148.191 19.572C147.454 19.572 146.746 19.4021 145.84 18.5523L134.227 8.12904V19.2604H128.902V3.54052C128.902 1.01967 130.431 0 132.103 0C132.811 0 133.519 0.169945 134.454 1.01967L146.066 11.443V0.311566H151.42V16.0032C151.42 18.524 149.89 19.572 148.191 19.572Z" fill="white"/>
<path d="M162.128 7.87412H172.438C177.055 7.87412 179.547 9.60189 179.547 13.0574C179.547 16.9379 177.196 19.2604 171.418 19.2604H153.772L157.539 14.3887H171.872C173.259 14.3887 173.883 13.9921 173.883 13.0008C173.883 12.0378 173.259 11.6412 171.872 11.6412H161.562C156.69 11.6412 154.452 9.46027 154.452 6.20299C154.452 2.63415 156.831 0.311566 162.581 0.311566H179.038L175.27 5.23997H162.128C160.768 5.23997 160.117 5.57986 160.117 6.54288C160.117 7.5059 160.768 7.87412 162.128 7.87412Z" fill="white"/>
<path d="M26.5921 38.0007L21.4343 29.4766H23.7868L27.3992 35.658L30.8049 29.4766H32.9606L28.0194 38.0007H26.5921Z" fill="white"/>
<path d="M54.0901 38.0007V31.4766C54.0901 30.372 54.9856 29.4766 56.0901 29.4766H63.2344V30.9826H56.1867V32.8429H60.2913V34.3095H56.1867V36.4061H63.3427V38.0007H54.0901Z" fill="white"/>
<path d="M91.8939 30.9432H87.1495V33.3055H91.8939C92.2548 33.3055 92.5009 33.253 92.6321 33.148C92.7699 33.043 92.8388 32.8659 92.8388 32.6165V31.6322C92.8388 31.3828 92.7699 31.2057 92.6321 31.1007C92.5009 30.9957 92.2548 30.9432 91.8939 30.9432ZM85.1022 38.0007V29.4766H92.7798C93.4819 29.4766 93.9905 29.6078 94.3055 29.8703C94.6204 30.1262 94.7779 30.5462 94.7779 31.1302V33.1382C94.7779 33.7157 94.6204 34.1323 94.3055 34.3883C93.9905 34.6442 93.4819 34.7721 92.7798 34.7721H91.6085L95.6638 38.0007H92.6814L89.1083 34.7721H87.1495V38.0007H85.1022Z" fill="white"/>
<path d="M118.969 31.0022V32.8035H124.52C125.393 32.8035 125.98 32.9446 126.282 33.2268C126.584 33.5024 126.735 34.0306 126.735 34.8115V35.9828C126.735 36.7637 126.581 37.2953 126.272 37.5774C125.964 37.8596 125.38 38.0007 124.52 38.0007H118.988C118.109 38.0007 117.512 37.8596 117.197 37.5774C116.889 37.2953 116.734 36.7637 116.734 35.9828V35.7466H118.585V36.4061H124.855V34.4572H119.333C118.46 34.4572 117.87 34.3161 117.561 34.0339C117.253 33.7452 117.099 33.2137 117.099 32.4393V31.4846C117.099 30.7168 117.253 30.1918 117.561 29.9097C117.87 29.6209 118.46 29.4766 119.333 29.4766C119.333 29.4766 123.533 29.4766 124.392 29.4766C125.252 29.4766 126.623 29.4766 126.623 29.4766C126.623 29.4766 126.623 30.3132 126.623 31.0022H118.969Z" fill="white"/>
<path d="M149.075 38.0007V31.4766C149.075 30.372 149.971 29.4766 151.075 29.4766H158.219V30.9826H151.172V32.8429H155.276V34.3095H151.172V36.4061H158.328V38.0007H149.075Z" fill="white"/>
</svg>
