<svg width="15" height="15" viewBox="0 0 15 15" fill="none" xmlns="http://www.w3.org/2000/svg">
<g clip-path="url(#clip0_0_83)">
<path d="M13.4644 4.43997C13.4731 4.57184 13.4731 4.70434 13.4731 4.83747C13.4731 8.90434 10.3769 13.5937 4.71688 13.5937V13.5912C3.045 13.5937 1.4075 13.115 0 12.2118C0.243125 12.2412 0.4875 12.2556 0.7325 12.2562C2.11875 12.2575 3.465 11.7925 4.55438 10.9362C3.2375 10.9112 2.0825 10.0525 1.67938 8.79872C2.14062 8.88747 2.61562 8.86934 3.06875 8.74622C1.6325 8.45622 0.6 7.19434 0.6 5.72934C0.6 5.71622 0.6 5.70309 0.6 5.69059C1.02813 5.92934 1.50687 6.06122 1.99687 6.07559C0.644375 5.17247 0.226875 3.37372 1.04375 1.96747C2.60625 3.88997 4.91187 5.05872 7.38625 5.18309C7.13812 4.11434 7.4775 2.99434 8.27625 2.24247C9.51562 1.07684 11.465 1.13684 12.6306 2.37622C13.32 2.24059 13.9806 1.98747 14.585 1.62934C14.355 2.34184 13.8744 2.94684 13.2319 3.33184C13.8425 3.25872 14.4381 3.09559 15 2.84684C14.5869 3.46497 14.0669 4.00434 13.4644 4.43997Z" fill="white"/>
</g>
<defs>
<clipPath id="clip0_0_83">
<rect width="15" height="15" fill="white"/>
</clipPath>
</defs>
</svg>
